<?xml version="1.0" encoding="UTF-8"?>
<svg width="512px" height="512px" viewBox="0 0 512 512" version="1.1" xmlns="http://www.w3.org/2000/svg" xmlns:xlink="http://www.w3.org/1999/xlink">
    <title>Icon Square</title>
    <defs>
        <filter id="filter-1">
            <feColorMatrix in="SourceGraphic" type="matrix" values="0 0 0 0 0.199626 0 0 0 0 0.199626 0 0 0 0 0.199626 0 0 0 1.000000 0"></feColorMatrix>
        </filter>
    </defs>
    <g id="Icon" stroke="none" stroke-width="1" fill="none" fill-rule="evenodd">
        <g id="Icon-Square">
            <rect id="Main-Area" stroke="#979797" fill="#76C6FF" x="0.5" y="0.5" width="511" height="511"></rect>
            <g id="Pencil-and-notecard-combo" transform="translate(33.424000, 109.424000)">
                <rect id="Notecard-coloring" stroke="#979797" fill="#FFF2B7" x="7.076" y="71.076" width="348" height="216" rx="8"></rect>
                <path d="M401.077359,7.5454982 C403.148306,7.54470212 405.023273,8.38362457 406.380575,9.74047473 C407.737993,11.0974419 408.57766,12.9724199 408.577832,15.0434543 L408.577832,15.0434543 L408.567163,127.304847 C408.566367,129.375736 407.726591,131.250549 406.369299,132.607841 C405.012007,133.965133 403.137194,134.804909 401.066456,134.805705 L401.066456,134.805705 L346.030296,134.810283 C343.959348,134.811079 342.084381,133.972157 340.72708,132.615307 C339.369661,131.258339 338.529995,129.383361 338.529822,127.312327 L338.529822,127.312327 L338.540492,15.0509342 C338.541288,12.9800455 339.381063,11.1052324 340.738355,9.74794024 C342.095648,8.39064814 343.970461,7.55087264 346.041199,7.55007645 L346.041199,7.55007645 Z" id="Pencil-body-background" stroke="#979797" fill="#63FFF8" transform="translate(373.553827, 71.177891) rotate(46.000000) translate(-373.553827, -71.177891) "></path>
                <path d="M311.301647,90.9214478 L337.635101,144.534757 L284.972657,144.532566 L311.301647,90.9214478 Z" id="Pencil-tip-background" stroke="#979797" fill="#FFFFFF" transform="translate(311.303918, 117.411022) rotate(-15.000000) translate(-311.303918, -117.411022) "></path>
                <g filter="url(#filter-1)" id="Pencil-and-notecard">
                    <g transform="translate(0.576000, 0.576000)">
                        <path d="M203.098205,171.656566 L53.9077835,171.656566 C50.7838359,171.656566 48.2501663,174.086476 48.2501663,177.082492 C48.2501663,180.078507 50.7838359,182.508418 53.9077835,182.508418 L203.098205,182.508418 C206.222152,182.508418 208.755822,180.078507 208.755822,177.082492 C208.755822,174.086476 206.222152,171.656566 203.098205,171.656566 Z" id="Path" fill="#000000" fill-rule="nonzero"></path>
                        <path d="M261.21138,135.154882 L53.8917472,135.154882 C50.7766543,135.154882 48.2501663,137.584793 48.2501663,140.580808 C48.2501663,143.576824 50.7766543,146.006734 53.8917472,146.006734 L261.21138,146.006734 C264.325533,146.006734 266.852961,143.576824 266.852961,140.580808 C266.852961,137.584793 264.327413,135.154882 261.21138,135.154882 Z" id="Path" fill="#000000" fill-rule="nonzero"></path>
                        <path d="M125.325556,197.306397 L53.8893476,197.306397 C50.7755797,197.306397 48.2501663,199.737212 48.2501663,202.732323 C48.2501663,205.727434 50.7755797,208.158249 53.8893476,208.158249 L125.325556,208.158249 C128.439324,208.158249 130.964737,205.727434 130.964737,202.732323 C130.964737,199.737212 128.439324,197.306397 125.325556,197.306397 Z" id="Path" fill="#000000" fill-rule="nonzero"></path>
                        <path d="M436.855945,33.9837855 L422.370395,20.0071177 L422.370395,20.0071177 L422.370395,20.0071177 L407.882965,6.02954231 C403.854289,2.14083238 398.480527,0 392.750269,0 C387.020012,0 381.646249,2.14083238 377.615692,6.02954231 L318.025529,63.5243682 L32.0807883,63.5243682 C14.3905466,63.5243682 0,77.4102844 0,94.4770473 L0,262.048228 C0,279.115899 14.3914872,293 32.0807883,293 L329.810558,293 C347.5008,293 361.890406,279.114991 361.890406,262.048228 L361.890406,134.410514 C363.573175,133.497552 365.144011,132.372231 366.545535,131.021845 L436.853123,63.1867719 C445.200185,55.135282 445.200185,42.0343679 436.855945,33.9837855 Z M385.596854,13.7298232 C387.495025,11.8984541 390.033758,10.8902028 392.749329,10.8902028 C395.464899,10.8902028 398.003632,11.8984541 399.901804,13.7298232 L410.399124,23.8568044 L325.781882,105.493395 L315.288325,95.3682289 C313.388272,93.5368597 312.345124,91.0865641 312.345124,88.4674703 C312.345124,85.8483765 313.388272,83.3980809 315.288325,81.5667118 L385.596854,13.7298232 Z M302.320936,99.4366271 L337.812413,133.679055 L296.097794,139.840187 C296.035713,139.849262 295.972691,139.856523 295.914373,139.860153 C295.918135,139.807517 295.92566,139.748528 295.934126,139.681372 L302.320936,99.4366271 Z M329.810558,282.109797 L32.0807883,282.109797 C20.6155702,282.109797 11.2874409,273.109952 11.2874409,262.048228 L11.2874409,94.4770473 C11.2874409,83.4144162 20.6155702,74.4145711 32.0807883,74.4145711 L306.790763,74.4145711 C303.629339,77.6888921 301.677552,81.7908685 301.187489,86.221366 C300.965503,86.2050307 300.74822,86.195048 300.547867,86.195048 C297.066633,86.195048 292.64854,88.4148343 291.658067,94.6703484 L284.778372,138.034229 C284.234693,141.470995 285.116054,144.694495 287.267253,147.109398 C289.360132,149.460774 292.387048,150.755801 295.791152,150.755801 C296.454289,150.755801 297.134357,150.704072 297.808782,150.605153 L342.75255,143.967574 C346.430374,143.423971 349.219313,141.669741 350.604846,139.084226 L350.604846,262.048228 C350.604846,273.11086 341.275776,282.109797 329.810558,282.109797 Z M428.872902,55.4855835 L358.565314,123.320657 C356.665261,125.152026 354.126528,126.160277 351.412839,126.160277 C348.697269,126.160277 346.158535,125.152026 344.259423,123.320657 L333.763984,113.193676 L418.379344,31.5570853 L428.874783,41.6840664 C432.817863,45.4892848 432.817863,51.6803651 428.872902,55.4855835 Z" id="Shape" fill="#000000" fill-rule="nonzero"></path>
                    </g>
                </g>
            </g>
        </g>
    </g>
</svg>